<svg id="visual" viewBox="0 0 960 540" width="960" height="540" xmlns="http://www.w3.org/2000/svg" xmlns:xlink="http://www.w3.org/1999/xlink" version="1.1"><path d="M0 350L22.8 346.2C45.7 342.3 91.3 334.7 137 338.2C182.7 341.7 228.3 356.3 274 364.3C319.7 372.3 365.3 373.7 411.2 373.8C457 374 503 373 548.8 377.2C594.7 381.3 640.3 390.7 686 393.7C731.7 396.7 777.3 393.3 823 384C868.7 374.7 914.3 359.3 937.2 351.7L960 344L960 541L937.2 541C914.3 541 868.7 541 823 541C777.3 541 731.7 541 686 541C640.3 541 594.7 541 548.8 541C503 541 457 541 411.2 541C365.3 541 319.7 541 274 541C228.3 541 182.7 541 137 541C91.3 541 45.7 541 22.8 541L0 541Z" fill="#ae93fd"></path><path d="M0 367L22.8 377.5C45.7 388 91.3 409 137 413.7C182.7 418.3 228.3 406.7 274 406.2C319.7 405.7 365.3 416.3 411.2 413.8C457 411.3 503 395.7 548.8 385.3C594.7 375 640.3 370 686 373.8C731.7 377.7 777.3 390.3 823 399.7C868.7 409 914.3 415 937.2 418L960 421L960 541L937.2 541C914.3 541 868.7 541 823 541C777.3 541 731.7 541 686 541C640.3 541 594.7 541 548.8 541C503 541 457 541 411.2 541C365.3 541 319.7 541 274 541C228.3 541 182.7 541 137 541C91.3 541 45.7 541 22.8 541L0 541Z" fill="#9e7ffc"></path><path d="M0 407L22.8 405C45.7 403 91.3 399 137 407.3C182.7 415.7 228.3 436.3 274 445.3C319.7 454.3 365.3 451.7 411.2 443.5C457 435.3 503 421.7 548.8 412.8C594.7 404 640.3 400 686 406.8C731.7 413.7 777.3 431.3 823 433.2C868.7 435 914.3 421 937.2 414L960 407L960 541L937.2 541C914.3 541 868.7 541 823 541C777.3 541 731.7 541 686 541C640.3 541 594.7 541 548.8 541C503 541 457 541 411.2 541C365.3 541 319.7 541 274 541C228.3 541 182.7 541 137 541C91.3 541 45.7 541 22.8 541L0 541Z" fill="#8e6afa"></path><path d="M0 475L22.8 474C45.7 473 91.3 471 137 470.7C182.7 470.3 228.3 471.7 274 466.5C319.7 461.3 365.3 449.7 411.2 448.2C457 446.7 503 455.3 548.8 463.3C594.7 471.3 640.3 478.7 686 482.5C731.7 486.3 777.3 486.7 823 483.7C868.7 480.7 914.3 474.3 937.2 471.2L960 468L960 541L937.2 541C914.3 541 868.7 541 823 541C777.3 541 731.7 541 686 541C640.3 541 594.7 541 548.8 541C503 541 457 541 411.2 541C365.3 541 319.7 541 274 541C228.3 541 182.7 541 137 541C91.3 541 45.7 541 22.8 541L0 541Z" fill="#7d54f8"></path><path d="M0 487L22.8 491.8C45.7 496.7 91.3 506.3 137 506.8C182.7 507.3 228.3 498.7 274 491.8C319.7 485 365.3 480 411.2 482.5C457 485 503 495 548.8 494.5C594.7 494 640.3 483 686 484.5C731.7 486 777.3 500 823 502.2C868.7 504.3 914.3 494.7 937.2 489.8L960 485L960 541L937.2 541C914.3 541 868.7 541 823 541C777.3 541 731.7 541 686 541C640.3 541 594.7 541 548.8 541C503 541 457 541 411.2 541C365.3 541 319.7 541 274 541C228.3 541 182.7 541 137 541C91.3 541 45.7 541 22.8 541L0 541Z" fill="#6b3df5"></path></svg>