<svg id="visual" viewBox="0 0 960 540" width="960" height="540" xmlns="http://www.w3.org/2000/svg" xmlns:xlink="http://www.w3.org/1999/xlink" version="1.1"><rect x="0" y="0" width="960" height="540" fill="#001220"></rect><path d="M0 371L22.8 364.7C45.7 358.3 91.3 345.7 137 345.8C182.7 346 228.3 359 274 369.5C319.7 380 365.3 388 411.2 379.2C457 370.3 503 344.7 548.8 342.5C594.7 340.3 640.3 361.7 686 362.5C731.7 363.3 777.3 343.7 823 342.5C868.7 341.3 914.3 358.7 937.2 367.3L960 376L960 541L937.2 541C914.3 541 868.7 541 823 541C777.3 541 731.7 541 686 541C640.3 541 594.7 541 548.8 541C503 541 457 541 411.2 541C365.3 541 319.7 541 274 541C228.3 541 182.7 541 137 541C91.3 541 45.7 541 22.8 541L0 541Z" fill="#6b3df5"></path><path d="M0 411L22.8 413C45.7 415 91.3 419 137 414.7C182.7 410.3 228.3 397.7 274 396.5C319.7 395.3 365.3 405.7 411.2 400.5C457 395.3 503 374.7 548.8 372.2C594.7 369.7 640.3 385.3 686 385.5C731.7 385.7 777.3 370.3 823 365C868.7 359.7 914.3 364.3 937.2 366.7L960 369L960 541L937.2 541C914.3 541 868.7 541 823 541C777.3 541 731.7 541 686 541C640.3 541 594.7 541 548.8 541C503 541 457 541 411.2 541C365.3 541 319.7 541 274 541C228.3 541 182.7 541 137 541C91.3 541 45.7 541 22.8 541L0 541Z" fill="#5c34d5"></path><path d="M0 454L22.8 453.3C45.7 452.7 91.3 451.3 137 441.8C182.7 432.3 228.3 414.7 274 415.3C319.7 416 365.3 435 411.2 442.2C457 449.3 503 444.7 548.8 443C594.7 441.3 640.3 442.7 686 443.2C731.7 443.7 777.3 443.3 823 442.2C868.7 441 914.3 439 937.2 438L960 437L960 541L937.2 541C914.3 541 868.7 541 823 541C777.3 541 731.7 541 686 541C640.3 541 594.7 541 548.8 541C503 541 457 541 411.2 541C365.3 541 319.7 541 274 541C228.3 541 182.7 541 137 541C91.3 541 45.7 541 22.8 541L0 541Z" fill="#4e2cb5"></path><path d="M0 465L22.8 466.7C45.7 468.3 91.3 471.7 137 469.5C182.7 467.3 228.3 459.7 274 458.2C319.7 456.7 365.3 461.3 411.2 459.3C457 457.3 503 448.7 548.8 450.7C594.7 452.7 640.3 465.3 686 470C731.7 474.7 777.3 471.3 823 469.7C868.7 468 914.3 468 937.2 468L960 468L960 541L937.2 541C914.3 541 868.7 541 823 541C777.3 541 731.7 541 686 541C640.3 541 594.7 541 548.8 541C503 541 457 541 411.2 541C365.3 541 319.7 541 274 541C228.3 541 182.7 541 137 541C91.3 541 45.7 541 22.8 541L0 541Z" fill="#402496"></path><path d="M0 508L22.8 504.5C45.7 501 91.3 494 137 489.8C182.7 485.7 228.3 484.3 274 481.8C319.7 479.3 365.3 475.7 411.2 478C457 480.3 503 488.7 548.8 495.2C594.7 501.7 640.3 506.3 686 503.2C731.7 500 777.3 489 823 483C868.7 477 914.3 476 937.2 475.5L960 475L960 541L937.2 541C914.3 541 868.7 541 823 541C777.3 541 731.7 541 686 541C640.3 541 594.7 541 548.8 541C503 541 457 541 411.2 541C365.3 541 319.7 541 274 541C228.3 541 182.7 541 137 541C91.3 541 45.7 541 22.8 541L0 541Z" fill="#331c78"></path></svg>