<svg id="visual" viewBox="0 0 900 600" width="900" height="600" xmlns="http://www.w3.org/2000/svg" xmlns:xlink="http://www.w3.org/1999/xlink" version="1.1"><path d="M0 462L21.5 467.5C43 473 86 484 128.8 484.3C171.7 484.7 214.3 474.3 257.2 475.7C300 477 343 490 385.8 489.2C428.7 488.3 471.3 473.7 514.2 474.3C557 475 600 491 642.8 494.3C685.7 497.7 728.3 488.3 771.2 481C814 473.7 857 468.3 878.5 465.7L900 463L900 601L878.5 601C857 601 814 601 771.2 601C728.3 601 685.7 601 642.8 601C600 601 557 601 514.2 601C471.3 601 428.7 601 385.8 601C343 601 300 601 257.2 601C214.3 601 171.7 601 128.8 601C86 601 43 601 21.5 601L0 601Z" fill="#ae93fd"></path><path d="M0 485L21.5 487C43 489 86 493 128.8 499.7C171.7 506.3 214.3 515.7 257.2 520.2C300 524.7 343 524.3 385.8 517C428.7 509.7 471.3 495.3 514.2 495.2C557 495 600 509 642.8 512C685.7 515 728.3 507 771.2 507.5C814 508 857 517 878.5 521.5L900 526L900 601L878.5 601C857 601 814 601 771.2 601C728.3 601 685.7 601 642.8 601C600 601 557 601 514.2 601C471.3 601 428.7 601 385.8 601C343 601 300 601 257.2 601C214.3 601 171.7 601 128.8 601C86 601 43 601 21.5 601L0 601Z" fill="#9e7ffc"></path><path d="M0 529L21.5 527.3C43 525.7 86 522.3 128.8 521C171.7 519.7 214.3 520.3 257.2 518.7C300 517 343 513 385.8 513.7C428.7 514.3 471.3 519.7 514.2 525.2C557 530.7 600 536.3 642.8 537.5C685.7 538.7 728.3 535.3 771.2 534C814 532.7 857 533.3 878.5 533.7L900 534L900 601L878.5 601C857 601 814 601 771.2 601C728.3 601 685.7 601 642.8 601C600 601 557 601 514.2 601C471.3 601 428.7 601 385.8 601C343 601 300 601 257.2 601C214.3 601 171.7 601 128.8 601C86 601 43 601 21.5 601L0 601Z" fill="#8e6afa"></path><path d="M0 543L21.5 544.3C43 545.7 86 548.3 128.8 550.7C171.7 553 214.3 555 257.2 553.8C300 552.7 343 548.3 385.8 548C428.7 547.7 471.3 551.3 514.2 550.5C557 549.7 600 544.3 642.8 541.2C685.7 538 728.3 537 771.2 535.5C814 534 857 532 878.5 531L900 530L900 601L878.5 601C857 601 814 601 771.2 601C728.3 601 685.7 601 642.8 601C600 601 557 601 514.2 601C471.3 601 428.7 601 385.8 601C343 601 300 601 257.2 601C214.3 601 171.7 601 128.8 601C86 601 43 601 21.5 601L0 601Z" fill="#7d54f8"></path><path d="M0 579L21.5 576.7C43 574.3 86 569.7 128.8 566.5C171.7 563.3 214.3 561.7 257.2 563.7C300 565.7 343 571.3 385.8 570.5C428.7 569.7 471.3 562.3 514.2 561.3C557 560.3 600 565.7 642.8 569.8C685.7 574 728.3 577 771.2 575C814 573 857 566 878.5 562.5L900 559L900 601L878.5 601C857 601 814 601 771.2 601C728.3 601 685.7 601 642.8 601C600 601 557 601 514.2 601C471.3 601 428.7 601 385.8 601C343 601 300 601 257.2 601C214.3 601 171.7 601 128.8 601C86 601 43 601 21.5 601L0 601Z" fill="#6b3df5"></path></svg>