<svg id="visual" viewBox="0 0 960 540" width="960" height="540" xmlns="http://www.w3.org/2000/svg" xmlns:xlink="http://www.w3.org/1999/xlink" version="1.1"><path d="M317 0L328.3 15C339.7 30 362.3 60 357.8 90C353.3 120 321.7 150 310.5 180C299.3 210 308.7 240 322.3 270C336 300 354 330 350.2 360C346.3 390 320.7 420 322.8 450C325 480 355 510 370 525L385 540L0 540L0 525C0 510 0 480 0 450C0 420 0 390 0 360C0 330 0 300 0 270C0 240 0 210 0 180C0 150 0 120 0 90C0 60 0 30 0 15L0 0Z" fill="#6b3df5" stroke-linecap="round" stroke-linejoin="miter"></path></svg>